<mxfile host="65bd71144e">
    <diagram id="67D62QSLCETgRDldV38u" name="Data Flow">
        <mxGraphModel dx="1947" dy="1335" grid="1" gridSize="10" guides="1" tooltips="1" connect="1" arrows="1" fold="1" page="1" pageScale="1" pageWidth="1800" pageHeight="1800" math="0" shadow="0">
            <root>
                <mxCell id="0"/>
                <mxCell id="1" parent="0"/>
                <mxCell id="2" value="Frontend" style="rounded=0;whiteSpace=wrap;html=1;" vertex="1" parent="1">
                    <mxGeometry x="680" y="1160" width="720" height="60" as="geometry"/>
                </mxCell>
                <mxCell id="3" value="Create" style="rounded=0;whiteSpace=wrap;html=1;" vertex="1" parent="1">
                    <mxGeometry x="680" y="1050" width="120" height="60" as="geometry"/>
                </mxCell>
                <mxCell id="4" value="Update" style="rounded=0;whiteSpace=wrap;html=1;" vertex="1" parent="1">
                    <mxGeometry x="820" y="1050" width="120" height="60" as="geometry"/>
                </mxCell>
                <mxCell id="5" value="Destory" style="rounded=0;whiteSpace=wrap;html=1;" vertex="1" parent="1">
                    <mxGeometry x="960" y="1050" width="120" height="60" as="geometry"/>
                </mxCell>
                <mxCell id="6" value="List" style="rounded=0;whiteSpace=wrap;html=1;" vertex="1" parent="1">
                    <mxGeometry x="1100" y="1050" width="120" height="60" as="geometry"/>
                </mxCell>
                <mxCell id="7" value="Retrieve" style="rounded=0;whiteSpace=wrap;html=1;" vertex="1" parent="1">
                    <mxGeometry x="1240" y="1050" width="120" height="60" as="geometry"/>
                </mxCell>
                <mxCell id="8" value="Backend" style="rounded=0;whiteSpace=wrap;html=1;" vertex="1" parent="1">
                    <mxGeometry x="680" y="880" width="720" height="60" as="geometry"/>
                </mxCell>
                <mxCell id="9" value="Django Rest Framework (drf)&lt;br&gt;serializers.py, views.py, urls.py&lt;br&gt;/rest-api/" style="rounded=0;whiteSpace=wrap;html=1;" vertex="1" parent="1">
                    <mxGeometry x="680" y="280" width="720" height="60" as="geometry"/>
                </mxCell>
                <mxCell id="263" value="SRM" style="rounded=0;whiteSpace=wrap;html=1;" vertex="1" parent="1">
                    <mxGeometry x="680" y="50" width="720" height="60" as="geometry"/>
                </mxCell>
                <mxCell id="264" value="Flask Api" style="rounded=0;whiteSpace=wrap;html=1;" vertex="1" parent="1">
                    <mxGeometry x="680" y="440" width="260" height="60" as="geometry"/>
                </mxCell>
                <mxCell id="265" value="SrmClient&lt;br&gt;models.py" style="rounded=0;whiteSpace=wrap;html=1;" vertex="1" parent="1">
                    <mxGeometry x="680" y="360" width="720" height="60" as="geometry"/>
                </mxCell>
                <mxCell id="267" value="SrmLogic&lt;br&gt;all the urls.py and&amp;nbsp;configurations" style="rounded=0;whiteSpace=wrap;html=1;" vertex="1" parent="1">
                    <mxGeometry x="680" y="800" width="720" height="60" as="geometry"/>
                </mxCell>
                <mxCell id="270" value="SRM Rest API&lt;br&gt;&lt;span style=&quot;color: rgb(205 , 205 , 205) ; font-family: &amp;#34;menlo&amp;#34; , monospace ; font-size: 11px ; text-align: left ; background-color: rgb(32 , 33 , 36)&quot;&gt;https://flask.texadasoftware.com&lt;/span&gt;" style="rounded=0;whiteSpace=wrap;html=1;" vertex="1" parent="1">
                    <mxGeometry x="680" y="200" width="720" height="60" as="geometry"/>
                </mxCell>
                <mxCell id="271" value="Rest Api" style="rounded=0;whiteSpace=wrap;html=1;" vertex="1" parent="1">
                    <mxGeometry x="680" y="510" width="260" height="60" as="geometry"/>
                </mxCell>
                <mxCell id="272" value="Mobile Api&lt;br&gt;/mobileapi/" style="rounded=0;whiteSpace=wrap;html=1;" vertex="1" parent="1">
                    <mxGeometry x="680" y="580" width="260" height="60" as="geometry"/>
                </mxCell>
                <mxCell id="275" value="Srm Api" style="rounded=0;whiteSpace=wrap;html=1;" vertex="1" parent="1">
                    <mxGeometry x="680" y="650" width="260" height="60" as="geometry"/>
                </mxCell>
                <mxCell id="276" value="Srm Api 2" style="rounded=0;whiteSpace=wrap;html=1;" vertex="1" parent="1">
                    <mxGeometry x="680" y="720" width="260" height="60" as="geometry"/>
                </mxCell>
                <mxCell id="7ExjDe2p0jEa0Jx7h0Ah-276" value="Django&amp;nbsp;&lt;br&gt;DB" style="shape=cylinder3;whiteSpace=wrap;html=1;boundedLbl=1;backgroundOutline=1;size=15;" vertex="1" parent="1">
                    <mxGeometry x="1450" y="350" width="60" height="80" as="geometry"/>
                </mxCell>
                <mxCell id="7ExjDe2p0jEa0Jx7h0Ah-277" value="SRM&lt;br&gt;DB" style="shape=cylinder3;whiteSpace=wrap;html=1;boundedLbl=1;backgroundOutline=1;size=15;" vertex="1" parent="1">
                    <mxGeometry x="1440" y="40" width="60" height="80" as="geometry"/>
                </mxCell>
                <mxCell id="xMML-vs02lhR5Z1XuFsO-276" value="&lt;h1&gt;Data Flow&lt;/h1&gt;&lt;p&gt;Introduction of the data flow&lt;/p&gt;" style="text;html=1;strokeColor=none;fillColor=none;spacing=5;spacingTop=-20;whiteSpace=wrap;overflow=hidden;rounded=0;" vertex="1" parent="1">
                    <mxGeometry x="1400" y="530" width="180" height="80" as="geometry"/>
                </mxCell>
            </root>
        </mxGraphModel>
    </diagram>
    <diagram id="yHR9tPHhgux1z9No3Vj-" name="List">
        <mxGraphModel dx="1947" dy="1335" grid="1" gridSize="10" guides="1" tooltips="1" connect="1" arrows="1" fold="1" page="1" pageScale="1" pageWidth="1800" pageHeight="1800" math="0" shadow="0">
            <root>
                <mxCell id="PAEITIINqtoX-prHcLeS-0"/>
                <mxCell id="PAEITIINqtoX-prHcLeS-1" parent="PAEITIINqtoX-prHcLeS-0"/>
                <mxCell id="PAEITIINqtoX-prHcLeS-2" value="Frontend" style="rounded=0;whiteSpace=wrap;html=1;" vertex="1" parent="PAEITIINqtoX-prHcLeS-1">
                    <mxGeometry x="680" y="1010" width="680" height="60" as="geometry"/>
                </mxCell>
                <mxCell id="PAEITIINqtoX-prHcLeS-19" style="edgeStyle=none;html=1;entryX=0.5;entryY=1;entryDx=0;entryDy=0;" edge="1" parent="PAEITIINqtoX-prHcLeS-1" source="PAEITIINqtoX-prHcLeS-6" target="PAEITIINqtoX-prHcLeS-8">
                    <mxGeometry relative="1" as="geometry"/>
                </mxCell>
                <mxCell id="PAEITIINqtoX-prHcLeS-6" value="List" style="rounded=0;whiteSpace=wrap;html=1;" vertex="1" parent="PAEITIINqtoX-prHcLeS-1">
                    <mxGeometry x="680" y="920" width="120" height="60" as="geometry"/>
                </mxCell>
                <mxCell id="PAEITIINqtoX-prHcLeS-20" style="edgeStyle=none;html=1;" edge="1" parent="PAEITIINqtoX-prHcLeS-1" source="PAEITIINqtoX-prHcLeS-8">
                    <mxGeometry relative="1" as="geometry">
                        <mxPoint x="1040" y="750" as="targetPoint"/>
                    </mxGeometry>
                </mxCell>
                <mxCell id="PAEITIINqtoX-prHcLeS-8" value="Backend" style="rounded=0;whiteSpace=wrap;html=1;" vertex="1" parent="PAEITIINqtoX-prHcLeS-1">
                    <mxGeometry x="680" y="800" width="720" height="60" as="geometry"/>
                </mxCell>
                <mxCell id="PAEITIINqtoX-prHcLeS-22" style="edgeStyle=none;html=1;exitX=0.5;exitY=0;exitDx=0;exitDy=0;entryX=0.5;entryY=1;entryDx=0;entryDy=0;" edge="1" parent="PAEITIINqtoX-prHcLeS-1" source="PAEITIINqtoX-prHcLeS-9" target="PAEITIINqtoX-prHcLeS-12">
                    <mxGeometry relative="1" as="geometry"/>
                </mxCell>
                <mxCell id="PAEITIINqtoX-prHcLeS-24" style="edgeStyle=none;html=1;entryX=1;entryY=0.5;entryDx=0;entryDy=0;" edge="1" parent="PAEITIINqtoX-prHcLeS-1" source="PAEITIINqtoX-prHcLeS-9" target="PAEITIINqtoX-prHcLeS-11">
                    <mxGeometry relative="1" as="geometry"/>
                </mxCell>
                <mxCell id="PAEITIINqtoX-prHcLeS-25" style="edgeStyle=none;html=1;entryX=0.5;entryY=1;entryDx=0;entryDy=0;" edge="1" parent="PAEITIINqtoX-prHcLeS-1" source="PAEITIINqtoX-prHcLeS-9" target="PAEITIINqtoX-prHcLeS-18">
                    <mxGeometry relative="1" as="geometry"/>
                </mxCell>
                <mxCell id="PAEITIINqtoX-prHcLeS-26" style="edgeStyle=none;html=1;entryX=0.528;entryY=1.071;entryDx=0;entryDy=0;entryPerimeter=0;" edge="1" parent="PAEITIINqtoX-prHcLeS-1" source="PAEITIINqtoX-prHcLeS-9" target="PAEITIINqtoX-prHcLeS-17">
                    <mxGeometry relative="1" as="geometry"/>
                </mxCell>
                <mxCell id="PAEITIINqtoX-prHcLeS-9" value="Django Rest Framework (drf)&lt;br&gt;serializers.py, views.py, urls.py&lt;br&gt;/rest-api/" style="rounded=0;whiteSpace=wrap;html=1;" vertex="1" parent="PAEITIINqtoX-prHcLeS-1">
                    <mxGeometry x="980" y="530" width="260" height="60" as="geometry"/>
                </mxCell>
                <mxCell id="PAEITIINqtoX-prHcLeS-34" style="edgeStyle=none;html=1;exitX=0.5;exitY=0;exitDx=0;exitDy=0;" edge="1" parent="PAEITIINqtoX-prHcLeS-1" source="PAEITIINqtoX-prHcLeS-10" target="PAEITIINqtoX-prHcLeS-31">
                    <mxGeometry relative="1" as="geometry"/>
                </mxCell>
                <mxCell id="PAEITIINqtoX-prHcLeS-10" value="SRM" style="rounded=0;whiteSpace=wrap;html=1;" vertex="1" parent="PAEITIINqtoX-prHcLeS-1">
                    <mxGeometry x="680" y="120" width="720" height="60" as="geometry"/>
                </mxCell>
                <mxCell id="PAEITIINqtoX-prHcLeS-27" style="edgeStyle=none;html=1;" edge="1" parent="PAEITIINqtoX-prHcLeS-1" source="PAEITIINqtoX-prHcLeS-11">
                    <mxGeometry relative="1" as="geometry">
                        <mxPoint x="800" y="380" as="targetPoint"/>
                    </mxGeometry>
                </mxCell>
                <mxCell id="PAEITIINqtoX-prHcLeS-11" value="Flask Api" style="rounded=0;whiteSpace=wrap;html=1;" vertex="1" parent="PAEITIINqtoX-prHcLeS-1">
                    <mxGeometry x="680" y="530" width="260" height="60" as="geometry"/>
                </mxCell>
                <mxCell id="PAEITIINqtoX-prHcLeS-33" style="edgeStyle=none;html=1;exitX=0.5;exitY=0;exitDx=0;exitDy=0;entryX=0.5;entryY=1;entryDx=0;entryDy=0;entryPerimeter=0;" edge="1" parent="PAEITIINqtoX-prHcLeS-1" source="PAEITIINqtoX-prHcLeS-12" target="PAEITIINqtoX-prHcLeS-32">
                    <mxGeometry relative="1" as="geometry"/>
                </mxCell>
                <mxCell id="PAEITIINqtoX-prHcLeS-12" value="SrmClient&lt;br&gt;models.py" style="rounded=0;whiteSpace=wrap;html=1;" vertex="1" parent="PAEITIINqtoX-prHcLeS-1">
                    <mxGeometry x="890" y="430" width="140" height="60" as="geometry"/>
                </mxCell>
                <mxCell id="PAEITIINqtoX-prHcLeS-21" style="edgeStyle=none;html=1;entryX=0.455;entryY=0.988;entryDx=0;entryDy=0;entryPerimeter=0;" edge="1" parent="PAEITIINqtoX-prHcLeS-1" source="PAEITIINqtoX-prHcLeS-13" target="PAEITIINqtoX-prHcLeS-9">
                    <mxGeometry relative="1" as="geometry"/>
                </mxCell>
                <mxCell id="PqhmYDyv3qV9vXZ71_nh-0" style="edgeStyle=none;html=1;entryX=0.5;entryY=1;entryDx=0;entryDy=0;" edge="1" parent="PAEITIINqtoX-prHcLeS-1" target="PAEITIINqtoX-prHcLeS-11">
                    <mxGeometry relative="1" as="geometry">
                        <mxPoint x="750" y="910" as="sourcePoint"/>
                    </mxGeometry>
                </mxCell>
                <mxCell id="PAEITIINqtoX-prHcLeS-13" value="SrmLogic&lt;br&gt;all the urls.py and&amp;nbsp;configurations" style="rounded=0;whiteSpace=wrap;html=1;" vertex="1" parent="PAEITIINqtoX-prHcLeS-1">
                    <mxGeometry x="680" y="680" width="720" height="60" as="geometry"/>
                </mxCell>
                <mxCell id="PAEITIINqtoX-prHcLeS-28" style="edgeStyle=none;html=1;entryX=0.437;entryY=1.005;entryDx=0;entryDy=0;entryPerimeter=0;" edge="1" parent="PAEITIINqtoX-prHcLeS-1" source="PAEITIINqtoX-prHcLeS-14" target="PAEITIINqtoX-prHcLeS-10">
                    <mxGeometry relative="1" as="geometry"/>
                </mxCell>
                <mxCell id="PAEITIINqtoX-prHcLeS-14" value="SRM Rest API&lt;br&gt;&lt;span style=&quot;color: rgb(205 , 205 , 205) ; font-family: &amp;#34;menlo&amp;#34; , monospace ; font-size: 11px ; text-align: left ; background-color: rgb(32 , 33 , 36)&quot;&gt;https://flask.texadasoftware.com&lt;/span&gt;" style="rounded=0;whiteSpace=wrap;html=1;" vertex="1" parent="PAEITIINqtoX-prHcLeS-1">
                    <mxGeometry x="670" y="310" width="260" height="60" as="geometry"/>
                </mxCell>
                <mxCell id="PAEITIINqtoX-prHcLeS-29" style="edgeStyle=none;html=1;entryX=0.514;entryY=1.021;entryDx=0;entryDy=0;entryPerimeter=0;" edge="1" parent="PAEITIINqtoX-prHcLeS-1" source="PAEITIINqtoX-prHcLeS-17" target="PAEITIINqtoX-prHcLeS-10">
                    <mxGeometry relative="1" as="geometry"/>
                </mxCell>
                <mxCell id="PAEITIINqtoX-prHcLeS-17" value="Srm Api" style="rounded=0;whiteSpace=wrap;html=1;" vertex="1" parent="PAEITIINqtoX-prHcLeS-1">
                    <mxGeometry x="1070" y="430" width="130" height="60" as="geometry"/>
                </mxCell>
                <mxCell id="PAEITIINqtoX-prHcLeS-30" style="edgeStyle=none;html=1;" edge="1" parent="PAEITIINqtoX-prHcLeS-1" source="PAEITIINqtoX-prHcLeS-18" target="PAEITIINqtoX-prHcLeS-10">
                    <mxGeometry relative="1" as="geometry"/>
                </mxCell>
                <mxCell id="PAEITIINqtoX-prHcLeS-18" value="Srm Api 2" style="rounded=0;whiteSpace=wrap;html=1;" vertex="1" parent="PAEITIINqtoX-prHcLeS-1">
                    <mxGeometry x="1230" y="430" width="130" height="60" as="geometry"/>
                </mxCell>
                <mxCell id="PAEITIINqtoX-prHcLeS-31" value="SRM DB" style="shape=cylinder3;whiteSpace=wrap;html=1;boundedLbl=1;backgroundOutline=1;size=15;" vertex="1" parent="PAEITIINqtoX-prHcLeS-1">
                    <mxGeometry x="1000" y="10" width="60" height="80" as="geometry"/>
                </mxCell>
                <mxCell id="PAEITIINqtoX-prHcLeS-32" value="Django&lt;br&gt;DB" style="shape=cylinder3;whiteSpace=wrap;html=1;boundedLbl=1;backgroundOutline=1;size=15;" vertex="1" parent="PAEITIINqtoX-prHcLeS-1">
                    <mxGeometry x="960" y="300" width="60" height="80" as="geometry"/>
                </mxCell>
                <mxCell id="X7ODgQzzcupGR5TJUjxb-0" value="&lt;h1&gt;List Data Flow&lt;/h1&gt;&lt;p&gt;How is Flask Api is mapped to SRM Schema&lt;/p&gt;&lt;p&gt;How to send query parameters like&lt;br&gt;&lt;br&gt;search, filter&lt;/p&gt;" style="text;html=1;strokeColor=none;fillColor=none;spacing=5;spacingTop=-20;whiteSpace=wrap;overflow=hidden;rounded=0;" vertex="1" parent="PAEITIINqtoX-prHcLeS-1">
                    <mxGeometry x="1430" y="430" width="280" height="130" as="geometry"/>
                </mxCell>
            </root>
        </mxGraphModel>
    </diagram>
    <diagram name="Create" id="-4SeZubwvVbfDfR_0okM">
        <mxGraphModel dx="1947" dy="1335" grid="1" gridSize="10" guides="1" tooltips="1" connect="1" arrows="1" fold="1" page="1" pageScale="1" pageWidth="1800" pageHeight="1800" math="0" shadow="0">
            <root>
                <mxCell id="q_VnAKZ3xKOf0QfX8X0j-0"/>
                <mxCell id="q_VnAKZ3xKOf0QfX8X0j-1" parent="q_VnAKZ3xKOf0QfX8X0j-0"/>
                <mxCell id="q_VnAKZ3xKOf0QfX8X0j-2" value="Frontend" style="rounded=0;whiteSpace=wrap;html=1;" vertex="1" parent="q_VnAKZ3xKOf0QfX8X0j-1">
                    <mxGeometry x="680" y="1010" width="680" height="60" as="geometry"/>
                </mxCell>
                <mxCell id="q_VnAKZ3xKOf0QfX8X0j-3" style="edgeStyle=none;html=1;entryX=0.5;entryY=1;entryDx=0;entryDy=0;" edge="1" parent="q_VnAKZ3xKOf0QfX8X0j-1" source="q_VnAKZ3xKOf0QfX8X0j-4" target="q_VnAKZ3xKOf0QfX8X0j-6">
                    <mxGeometry relative="1" as="geometry"/>
                </mxCell>
                <mxCell id="q_VnAKZ3xKOf0QfX8X0j-4" value="Create" style="rounded=0;whiteSpace=wrap;html=1;" vertex="1" parent="q_VnAKZ3xKOf0QfX8X0j-1">
                    <mxGeometry x="680" y="920" width="120" height="60" as="geometry"/>
                </mxCell>
                <mxCell id="q_VnAKZ3xKOf0QfX8X0j-5" style="edgeStyle=none;html=1;" edge="1" parent="q_VnAKZ3xKOf0QfX8X0j-1" source="q_VnAKZ3xKOf0QfX8X0j-6">
                    <mxGeometry relative="1" as="geometry">
                        <mxPoint x="1040" y="750" as="targetPoint"/>
                    </mxGeometry>
                </mxCell>
                <mxCell id="q_VnAKZ3xKOf0QfX8X0j-6" value="Backend" style="rounded=0;whiteSpace=wrap;html=1;" vertex="1" parent="q_VnAKZ3xKOf0QfX8X0j-1">
                    <mxGeometry x="680" y="800" width="720" height="60" as="geometry"/>
                </mxCell>
                <mxCell id="q_VnAKZ3xKOf0QfX8X0j-7" style="edgeStyle=none;html=1;exitX=0.5;exitY=0;exitDx=0;exitDy=0;entryX=0.5;entryY=1;entryDx=0;entryDy=0;" edge="1" parent="q_VnAKZ3xKOf0QfX8X0j-1" source="q_VnAKZ3xKOf0QfX8X0j-11" target="q_VnAKZ3xKOf0QfX8X0j-17">
                    <mxGeometry relative="1" as="geometry"/>
                </mxCell>
                <mxCell id="q_VnAKZ3xKOf0QfX8X0j-11" value="Django Rest Framework (drf)&lt;br&gt;serializers.py, views.py, urls.py&lt;br&gt;/rest-api/" style="rounded=0;whiteSpace=wrap;html=1;" vertex="1" parent="q_VnAKZ3xKOf0QfX8X0j-1">
                    <mxGeometry x="980" y="530" width="260" height="60" as="geometry"/>
                </mxCell>
                <mxCell id="q_VnAKZ3xKOf0QfX8X0j-12" style="edgeStyle=none;html=1;exitX=0.5;exitY=0;exitDx=0;exitDy=0;" edge="1" parent="q_VnAKZ3xKOf0QfX8X0j-1" source="q_VnAKZ3xKOf0QfX8X0j-13" target="q_VnAKZ3xKOf0QfX8X0j-26">
                    <mxGeometry relative="1" as="geometry"/>
                </mxCell>
                <mxCell id="q_VnAKZ3xKOf0QfX8X0j-13" value="SRM" style="rounded=0;whiteSpace=wrap;html=1;" vertex="1" parent="q_VnAKZ3xKOf0QfX8X0j-1">
                    <mxGeometry x="680" y="120" width="720" height="60" as="geometry"/>
                </mxCell>
                <mxCell id="q_VnAKZ3xKOf0QfX8X0j-15" value="Flask Api" style="rounded=0;whiteSpace=wrap;html=1;" vertex="1" parent="q_VnAKZ3xKOf0QfX8X0j-1">
                    <mxGeometry x="680" y="530" width="260" height="60" as="geometry"/>
                </mxCell>
                <mxCell id="q_VnAKZ3xKOf0QfX8X0j-16" style="edgeStyle=none;html=1;exitX=0.5;exitY=0;exitDx=0;exitDy=0;entryX=0.5;entryY=1;entryDx=0;entryDy=0;entryPerimeter=0;" edge="1" parent="q_VnAKZ3xKOf0QfX8X0j-1" source="q_VnAKZ3xKOf0QfX8X0j-17" target="q_VnAKZ3xKOf0QfX8X0j-27">
                    <mxGeometry relative="1" as="geometry"/>
                </mxCell>
                <mxCell id="q_VnAKZ3xKOf0QfX8X0j-17" value="SrmClient&lt;br&gt;models.py" style="rounded=0;whiteSpace=wrap;html=1;" vertex="1" parent="q_VnAKZ3xKOf0QfX8X0j-1">
                    <mxGeometry x="890" y="430" width="140" height="60" as="geometry"/>
                </mxCell>
                <mxCell id="q_VnAKZ3xKOf0QfX8X0j-18" style="edgeStyle=none;html=1;entryX=0.455;entryY=0.988;entryDx=0;entryDy=0;entryPerimeter=0;" edge="1" parent="q_VnAKZ3xKOf0QfX8X0j-1" source="q_VnAKZ3xKOf0QfX8X0j-19" target="q_VnAKZ3xKOf0QfX8X0j-11">
                    <mxGeometry relative="1" as="geometry"/>
                </mxCell>
                <mxCell id="q_VnAKZ3xKOf0QfX8X0j-19" value="SrmLogic&lt;br&gt;all the urls.py and&amp;nbsp;configurations" style="rounded=0;whiteSpace=wrap;html=1;" vertex="1" parent="q_VnAKZ3xKOf0QfX8X0j-1">
                    <mxGeometry x="680" y="680" width="720" height="60" as="geometry"/>
                </mxCell>
                <mxCell id="q_VnAKZ3xKOf0QfX8X0j-21" value="SRM Rest API&lt;br&gt;&lt;span style=&quot;color: rgb(205 , 205 , 205) ; font-family: &amp;#34;menlo&amp;#34; , monospace ; font-size: 11px ; text-align: left ; background-color: rgb(32 , 33 , 36)&quot;&gt;https://flask.texadasoftware.com&lt;/span&gt;" style="rounded=0;whiteSpace=wrap;html=1;" vertex="1" parent="q_VnAKZ3xKOf0QfX8X0j-1">
                    <mxGeometry x="670" y="310" width="260" height="60" as="geometry"/>
                </mxCell>
                <mxCell id="q_VnAKZ3xKOf0QfX8X0j-23" value="Srm Api" style="rounded=0;whiteSpace=wrap;html=1;" vertex="1" parent="q_VnAKZ3xKOf0QfX8X0j-1">
                    <mxGeometry x="1070" y="430" width="130" height="60" as="geometry"/>
                </mxCell>
                <mxCell id="q_VnAKZ3xKOf0QfX8X0j-25" value="Srm Api 2" style="rounded=0;whiteSpace=wrap;html=1;" vertex="1" parent="q_VnAKZ3xKOf0QfX8X0j-1">
                    <mxGeometry x="1230" y="430" width="130" height="60" as="geometry"/>
                </mxCell>
                <mxCell id="q_VnAKZ3xKOf0QfX8X0j-26" value="SRM DB" style="shape=cylinder3;whiteSpace=wrap;html=1;boundedLbl=1;backgroundOutline=1;size=15;" vertex="1" parent="q_VnAKZ3xKOf0QfX8X0j-1">
                    <mxGeometry x="1000" y="10" width="60" height="80" as="geometry"/>
                </mxCell>
                <mxCell id="q_VnAKZ3xKOf0QfX8X0j-27" value="Django&lt;br&gt;DB" style="shape=cylinder3;whiteSpace=wrap;html=1;boundedLbl=1;backgroundOutline=1;size=15;" vertex="1" parent="q_VnAKZ3xKOf0QfX8X0j-1">
                    <mxGeometry x="960" y="300" width="60" height="80" as="geometry"/>
                </mxCell>
                <mxCell id="q_VnAKZ3xKOf0QfX8X0j-28" value="&lt;h1&gt;Create Data Flow&lt;/h1&gt;&lt;p&gt;&lt;br&gt;&lt;/p&gt;" style="text;html=1;strokeColor=none;fillColor=none;spacing=5;spacingTop=-20;whiteSpace=wrap;overflow=hidden;rounded=0;" vertex="1" parent="q_VnAKZ3xKOf0QfX8X0j-1">
                    <mxGeometry x="1430" y="430" width="280" height="40" as="geometry"/>
                </mxCell>
            </root>
        </mxGraphModel>
    </diagram>
</mxfile>